# xmcd
#
# Track frame offsets:
#	150
#	14350
#	25400
#	43613
#	55250
#	64013
#	75413
#	87275
#	99325
#	111488
#	120975
#	135650
#	149963
#	164513
#	176225
#	190075
#	202988
#	216900
#	229550
#
# Disc length: 3194 seconds
#
# Revision: 1
# Processed by: cddbd v1.4PL0 Copyright (c) Steve Scherf et al.
# Submitted via: audiograbber 1.82.00
#
DISCID=0c0c7813
DTITLE=Various Artist - Silver Screen Themes
DYEAR=1900
DGENRE=
TTITLE0=An Affair to Remember
TTITLE1=Hernando's Hideaway
TTITLE2=Pennies From Heaven
TTITLE3=She Wears Red Feathers
TTITLE4=Que Sera Sera
TTITLE5=Pocket Full Of Miracles
TTITLE6=No No Nanette
TTITLE7=Strangers in the Night
TTITLE8=Singing in the rain
TTITLE9=Thank heaven for little girls
TTITLE10=Louise
TTITLE11=One hour with you
TTITLE12=Lullaby of broadway
TTITLE13=Puttin ' on the Ritz
TTITLE14=Cheek to cheek
TTITLE15=You're the top
TTITLE16=Come to me
TTITLE17=According to the moonlights
TTITLE18=Ramona
EXTD=
EXTT0=
EXTT1=
EXTT2=
EXTT3=
EXTT4=
EXTT5=
EXTT6=
EXTT7=
EXTT8=
EXTT9=
EXTT10=
EXTT11=
EXTT12=
EXTT13=
EXTT14=
EXTT15=
EXTT16=
EXTT17=
EXTT18=
PLAYORDER=
